<svg xmlns="http://www.w3.org/2000/svg" viewBox="0 0 32 32" fill="none">
  <path d="M27.6863 10.6436L27.7157 10.8969L27.725 11.1556V20.8462C27.7249 21.391 27.5913 21.9274 27.3358 22.4086C27.0803 22.8897 26.7109 23.3009 26.2597 23.6062L26.0597 23.7329L17.6663 28.5782L17.501 28.6676L17.333 28.7476V16.7609L27.6863 10.6436Z" fill="#CBD5E1"/>
  <path d="M17.6668 3.42258L26.0588 8.26791C26.1255 8.30791 26.1921 8.34791 26.2561 8.39058L16.0001 14.4506L5.74414 8.39058C5.80863 8.34766 5.87444 8.30675 5.94147 8.26791L14.3335 3.42258C14.8401 3.12976 15.415 2.97559 16.0001 2.97559C16.5853 2.97559 17.1602 3.12976 17.6668 3.42258Z" fill="#334155"/>
  <path d="M4.31308 10.6436L14.6664 16.7622V28.7462C14.552 28.6969 14.4407 28.6408 14.3331 28.5782L5.94108 23.7329C5.43454 23.4401 5.01391 23.0193 4.72137 22.5126C4.42884 22.006 4.2747 21.4313 4.27441 20.8462V11.1556C4.27441 10.9822 4.28775 10.8116 4.31441 10.6436H4.31308Z" fill="#CBD5E1"/>
</svg>