<svg xmlns="http://www.w3.org/2000/svg" viewBox="0 0 32 32" fill="none">
<path d="M28 21.524V23.3333C28 24.4187 27.492 25.3467 26.7867 26.076C26.0893 26.7987 25.1427 27.388 24.0773 27.8547C21.9413 28.788 19.0853 29.3333 16 29.3333C12.9147 29.3333 10.0587 28.7893 7.92267 27.8547C6.85733 27.388 5.91067 26.7987 5.21333 26.076C4.56667 25.4093 4.08667 24.572 4.01067 23.6013L4 23.3333V21.524C4.62 21.876 5.28267 22.188 5.992 22.4507C8.69867 23.452 12.2387 24.0107 16 24.0107C19.7613 24.0107 23.3013 23.452 26.008 22.4507C26.54 22.2533 27.0453 22.0293 27.5267 21.78L28 21.524ZM16 4C19.0853 4 21.9413 4.544 24.0773 5.47867C25.1427 5.94533 26.0893 6.53467 26.7867 7.25733C27.4333 7.924 27.9133 8.76133 27.9893 9.732L28 10V10.9973C27.1148 11.681 26.1312 12.2267 25.0827 12.616C22.7427 13.4827 19.5307 14.012 16 14.012C12.4707 14.012 9.25867 13.4827 6.91733 12.616C6.0158 12.2816 5.16189 11.8306 4.37733 11.2747L4 10.9973V10C4 8.91467 4.508 7.98667 5.21333 7.25733C5.91067 6.53467 6.85733 5.94533 7.92267 5.47867C10.0587 4.54533 12.9147 4 16 4Z" fill="#CBD5E1"/>
<path d="M4 14.1904C4.62 14.5424 5.28267 14.8544 5.992 15.1171C8.69867 16.1184 12.2387 16.6771 16 16.6771C19.7613 16.6771 23.3013 16.1184 26.008 15.1171C26.6961 14.8628 27.3623 14.5529 28 14.1904V18.3304C27.1148 19.0141 26.1312 19.5598 25.0827 19.9491C22.7427 20.8158 19.5307 21.3451 16 21.3451C12.4707 21.3451 9.25867 20.8158 6.91733 19.9491C5.86881 19.5598 4.88523 19.0141 4 18.3304V14.1904Z" fill="#334155"/>
</svg>