<svg xmlns="http://www.w3.org/2000/svg" viewBox="0 0 32 32" fill="none">
  <path d="M26.4262 8C26.8134 8.00015 27.196 8.08462 27.5473 8.24755C27.8985 8.41049 28.2101 8.64797 28.4603 8.94349C28.7106 9.23901 28.8934 9.58548 28.9962 9.95881C29.099 10.3321 29.1193 10.7234 29.0556 11.1053L26.8342 24.4387C26.7304 25.0613 26.409 25.6269 25.9273 26.0349C25.4456 26.4429 24.8348 26.6667 24.2036 26.6667H7.79555C7.1643 26.6667 6.55349 26.4429 6.07179 26.0349C5.59009 25.6269 5.26873 25.0613 5.16489 24.4387L2.94355 11.1053C2.87986 10.7234 2.9001 10.3321 3.00289 9.95881C3.10568 9.58548 3.28854 9.23901 3.53876 8.94349C3.78898 8.64797 4.10056 8.41049 4.45184 8.24755C4.80312 8.08462 5.18566 8.00015 5.57289 8H26.4262Z" fill="#CBD5E1"/>
  <path d="M24.0003 4C24.3539 4 24.6931 4.14048 24.9431 4.39052C25.1932 4.64057 25.3337 4.97971 25.3337 5.33333C25.3337 5.68696 25.1932 6.02609 24.9431 6.27614C24.6931 6.52619 24.3539 6.66667 24.0003 6.66667H8.00033C7.6467 6.66667 7.30757 6.52619 7.05752 6.27614C6.80747 6.02609 6.66699 5.68696 6.66699 5.33333C6.66699 4.97971 6.80747 4.64057 7.05752 4.39052C7.30757 4.14048 7.6467 4 8.00033 4H24.0003Z" fill="#334155"/>
</svg>