<svg xmlns="http://www.w3.org/2000/svg" viewBox="0 0 32 32" fill="none">
<path fill-rule="evenodd" clip-rule="evenodd" d="M25.333 14.6667C26.0058 14.6665 26.6538 14.9205 27.1471 15.378C27.6404 15.8355 27.9426 16.4625 27.993 17.1333L27.9997 17.3333V25.3333C27.9999 26.0061 27.7458 26.6541 27.2883 27.1474C26.8309 27.6407 26.2039 27.9429 25.533 27.9933L25.333 28H19.9997C19.3269 28.0002 18.6789 27.7461 18.1856 27.2887C17.6923 26.8312 17.3901 26.2042 17.3397 25.5333L17.333 25.3333V17.3333C17.3328 16.6606 17.5869 16.0126 18.0443 15.5193C18.5018 15.026 19.1288 14.7238 19.7997 14.6733L19.9997 14.6667H25.333ZM25.333 4C26.0403 4 26.7185 4.28095 27.2186 4.78105C27.7187 5.28115 27.9997 5.95942 27.9997 6.66667V9.33333C27.9997 10.0406 27.7187 10.7189 27.2186 11.219C26.7185 11.719 26.0403 12 25.333 12H19.9997C19.2924 12 18.6142 11.719 18.1141 11.219C17.614 10.7189 17.333 10.0406 17.333 9.33333V6.66667C17.333 5.95942 17.614 5.28115 18.1141 4.78105C18.6142 4.28095 19.2924 4 19.9997 4H25.333Z" fill="#CBD5E1"/>
<path fill-rule="evenodd" clip-rule="evenodd" d="M12 4C12.7072 4 13.3855 4.28095 13.8856 4.78105C14.3857 5.28115 14.6667 5.95942 14.6667 6.66667V14.6667C14.6667 15.3739 14.3857 16.0522 13.8856 16.5523C13.3855 17.0524 12.7072 17.3333 12 17.3333H6.66667C5.95942 17.3333 5.28115 17.0524 4.78105 16.5523C4.28095 16.0522 4 15.3739 4 14.6667V6.66667C4 5.95942 4.28095 5.28115 4.78105 4.78105C5.28115 4.28095 5.95942 4 6.66667 4H12Z" fill="#334155"/>
<path fill-rule="evenodd" clip-rule="evenodd" d="M12 20C12.7072 20 13.3855 20.281 13.8856 20.781C14.3857 21.2811 14.6667 21.9594 14.6667 22.6667V25.3333C14.6667 26.0406 14.3857 26.7189 13.8856 27.219C13.3855 27.719 12.7072 28 12 28H6.66667C5.95942 28 5.28115 27.719 4.78105 27.219C4.28095 26.7189 4 26.0406 4 25.3333V22.6667C4 21.9594 4.28095 21.2811 4.78105 20.781C5.28115 20.281 5.95942 20 6.66667 20H12Z" fill="#CBD5E1"/>
</svg>