<svg xmlns="http://www.w3.org/2000/svg" viewBox="0 0 32 32" fill="none">
  <path d="M9.33301 4V5.33333C9.33301 6.04058 9.61396 6.71885 10.1141 7.21895C10.6142 7.71905 11.2924 8 11.9997 8H19.9997C20.7069 8 21.3852 7.71905 21.8853 7.21895C22.3854 6.71885 22.6663 6.04058 22.6663 5.33333V4H23.9997C24.7069 4 25.3852 4.28095 25.8853 4.78105C26.3854 5.28115 26.6663 5.95942 26.6663 6.66667V21.3333C26.6663 23.4551 25.8235 25.4899 24.3232 26.9902C22.8229 28.4905 20.7881 29.3333 18.6663 29.3333H7.99967C7.29243 29.3333 6.61415 29.0524 6.11406 28.5523C5.61396 28.0522 5.33301 27.3739 5.33301 26.6667V6.66667C5.33301 5.95942 5.61396 5.28115 6.11406 4.78105C6.61415 4.28095 7.29243 4 7.99967 4H9.33301Z" fill="#CBD5E1"/>
  <path d="M18.667 2.66699C19.0068 2.66737 19.3337 2.7975 19.5808 3.03079C19.8279 3.26408 19.9766 3.58293 19.9966 3.92219C20.0165 4.26144 19.9061 4.5955 19.688 4.8561C19.4699 5.11671 19.1605 5.28419 18.823 5.32433L18.667 5.33366H13.3337C12.9938 5.33328 12.6669 5.20315 12.4198 4.96986C12.1727 4.73657 12.024 4.41772 12.0041 4.07847C11.9842 3.73921 12.0946 3.40515 12.3127 3.14455C12.5308 2.88394 12.8402 2.71646 13.1777 2.67633L13.3337 2.66699H18.667ZM20.0003 13.3337H12.0003C11.6605 13.334 11.3336 13.4642 11.0865 13.6975C10.8394 13.9307 10.6907 14.2496 10.6708 14.5889C10.6508 14.9281 10.7612 15.2622 10.9793 15.5228C11.1975 15.7834 11.5069 15.9509 11.8443 15.991L12.0003 16.0003H20.0003C20.3539 16.0003 20.6931 15.8598 20.9431 15.6098C21.1932 15.3598 21.3337 15.0206 21.3337 14.667C21.3337 14.3134 21.1932 13.9742 20.9431 13.7242C20.6931 13.4741 20.3539 13.3337 20.0003 13.3337ZM16.0003 18.667H12.0003C11.6467 18.667 11.3076 18.8075 11.0575 19.0575C10.8075 19.3076 10.667 19.6467 10.667 20.0003C10.667 20.3539 10.8075 20.6931 11.0575 20.9431C11.3076 21.1932 11.6467 21.3337 12.0003 21.3337H16.0003C16.3539 21.3337 16.6931 21.1932 16.9431 20.9431C17.1932 20.6931 17.3337 20.3539 17.3337 20.0003C17.3337 19.6467 17.1932 19.3076 16.9431 19.0575C16.6931 18.8075 16.3539 18.667 16.0003 18.667Z" fill="#334155"/>
</svg>