<svg xmlns="http://www.w3.org/2000/svg" viewBox="0 0 32 32" fill="none">
  <path fill-rule="evenodd" clip-rule="evenodd" d="M13.3333 4C14.0406 4 14.7189 4.28095 15.219 4.78105C15.719 5.28115 16 5.95942 16 6.66667V25.3333C16 26.0406 15.719 26.7189 15.219 27.219C14.7189 27.719 14.0406 28 13.3333 28H6.66667C5.95942 28 5.28115 27.719 4.78105 27.219C4.28095 26.7189 4 26.0406 4 25.3333V6.66667C4 5.95942 4.28095 5.28115 4.78105 4.78105C5.28115 4.28095 5.95942 4 6.66667 4H13.3333Z" fill="#CBD5E1"/>
  <path fill-rule="evenodd" clip-rule="evenodd" d="M18.1813 5.33291C18.6532 4.86098 19.2849 4.58314 19.9516 4.55426C20.6184 4.52538 21.2717 4.74755 21.7827 5.17691L21.952 5.33291L26.6667 10.0476C27.1154 10.4965 27.3893 11.0907 27.4392 11.7234C27.489 12.3562 27.3116 12.986 26.9387 13.4996L17.3333 23.1422V6.18091L18.1813 5.33291ZM10 19.9996C9.46957 19.9996 8.96086 20.2103 8.58579 20.5854C8.21071 20.9604 8 21.4691 8 21.9996C8 22.53 8.21071 23.0387 8.58579 23.4138C8.96086 23.7889 9.46957 23.9996 10 23.9996C10.5304 23.9996 11.0391 23.7889 11.4142 23.4138C11.7893 23.0387 12 22.53 12 21.9996C12 21.4691 11.7893 20.9604 11.4142 20.5854C11.0391 20.2103 10.5304 19.9996 10 19.9996Z" fill="#334155"/>
  <path fill-rule="evenodd" clip-rule="evenodd" d="M26.213 16.1484C27.1877 16.4898 27.9063 17.3804 27.9917 18.4511L27.9997 25.3338C27.9999 26.0065 27.7458 26.6545 27.2883 27.1478C26.8309 27.6411 26.2039 27.9433 25.533 27.9938L25.333 28.0004H17.333V25.0271L26.213 16.1484Z" fill="#CBD5E1"/>
</svg>